# xmcd
#
# Track frame offsets: 
#        182
#        18157
#        34207
#        45640
#        63345
#        79867
#        103062
#        122967
#        142597
#        161592
#        175292
#        187525
#        201995
#        219850
#        237912
#        251935
#        270620
#        292290
#        306307
#        319797
#
# Disc length: 4515 seconds
#
# Revision: 3
# Processed by: cddbd v1.5.2PL0 Copyright (c) Steve Scherf et al.
# Submitted via: ExactAudioCopy v0.99pb5
#
DISCID=2111a114
DTITLE=Michael Holm - Tränen lügen nicht - seine schönsten Lieder
DYEAR=1900
DGENRE=Schlager
TTITLE0=Tränen lügen nicht
TTITLE1=El Matador
TTITLE2=Lady Love
TTITLE3=Lucille
TTITLE4=Colorado
TTITLE5=Allein mit dir
TTITLE6=Traum-Hotel
TTITLE7=Saudade
TTITLE8=Wenn die Zukunft beginnt
TTITLE9=Gimme Gimme your Love
TTITLE10=Barfuß im Regen
TTITLE11=Nachts scheint die Sonne
TTITLE12=Baby, du bist nicht alleine
TTITLE13=Du weinst um mich
TTITLE14=Sing, wenn du glücklich bist
TTITLE15=Wenn ein Mann ein Mädchen liebt
TTITLE16=Halte fest, den der dich liebt
TTITLE17=El Paso
TTITLE18=Wenn ich nur ein Maler wär'
TTITLE19=When A Child Is Born
EXTD=
EXTT0=
EXTT1=
EXTT2=
EXTT3=
EXTT4=
EXTT5=
EXTT6=
EXTT7=
EXTT8=
EXTT9=
EXTT10=
EXTT11=
EXTT12=
EXTT13=
EXTT14=
EXTT15=
EXTT16=
EXTT17=
EXTT18=
EXTT19=
PLAYORDER=
